Coordinates
nRows=12
nColumns=24

# SIMM Motion File Header:
name Coordinates
datacolumns 24
datarows 12
otherdata 1
range 0.68067000000000000000 0.69167000000000001000
endheader
time	pelvis_tx	pelvis_ty	pelvis_tz	pelvis_tilt	pelvis_list	pelvis_rotation	hip_flexion_r	hip_adduction_r	hip_rotation_r	knee_angle_r	ankle_angle_r	subtalar_angle_r	mtp_angle_r	hip_flexion_l	hip_adduction_l	hip_rotation_l	knee_angle_l	ankle_angle_l	subtalar_angle_l	mtp_angle_l	lumbar_extension	lumbar_bending	lumbar_rotation
      0.68067000000000000000	      0.54176684519771756000	      0.77215484498717546000	     -0.28480544866814284000	     -2.32206792189202330000	     -3.80715109274406860000	      2.50536968375376780000	     27.53372992798291800000	      4.35622137514488190000	      3.38763871723507350000	    -14.60891081340965400000	    -11.08931220902875500000	      0.00000000000013248927	     -0.00000000000028244358	    -18.36170866555926300000	     -5.53855601798690870000	    -11.63668304338503200000	    -16.64031365617637800000	      3.46723799627637240000	     -0.00000000000009840315	      0.00000000000028194132	      1.39015163835569710000	      4.86731424040331450000	    -10.94346716538173300000
      0.68167000000000000000	      0.54300975934195106000	      0.77224751540280911000	     -0.28460432155387333000	     -2.31184822999807340000	     -3.83368395023043010000	      2.47620458250396780000	     27.49647033564043900000	      4.43019009224759140000	      3.53926114297204550000	    -14.74208076466916300000	    -10.99441375938901900000	      0.00000000000013284193	     -0.00000000000028347800	    -18.30918955634858800000	     -5.59621041928224370000	    -11.60807077902520000000	    -16.86940331137156300000	      3.19689096261676300000	     -0.00000000000009856935	      0.00000000000028272797	      1.39379949653387870000	      4.89961819925698180000	    -10.94925357727409800000
      0.68267000000000000000	      0.54424969986786076000	      0.77234184542415085000	     -0.28440534868210493000	     -2.30239111122624960000	     -3.85967573646526050000	      2.44831694085720120000	     27.45843552005367300000	      4.50313533070715000000	      3.68861404274754310000	    -14.87295975877812600000	    -10.89338767093480500000	      0.00000000000013321529	     -0.00000000000028449976	    -18.25201832262262900000	     -5.65365384907005720000	    -11.57760883322204000000	    -17.10211805364388100000	      2.91856558898629450000	     -0.00000000000009873408	      0.00000000000028353150	      1.39803498329528650000	      4.93122640426257240000	    -10.95677888074117600000
      0.68367000000000000000	      0.54548864918766238000	      0.77243672864739532000	     -0.28420709389117021000	     -2.29318818349513530000	     -3.88548716561624730000	      2.42085511907811310000	     27.42014229671881200000	      4.57573940961899160000	      3.83721043386921410000	    -15.00307510050357400000	    -10.79031903620909500000	      0.00000000000013359555	     -0.00000000000028551730	    -18.19329638072490200000	     -5.71102695502203160000	    -11.54653032693777200000	    -17.33604115827524700000	      2.63758076869886700000	     -0.00000000000009889831	      0.00000000000028434065	      1.40246634625110330000	      4.96260269131880440000	    -10.96488381473316000000
      0.68467000000000000000	      0.54672628212599306000	      0.77253238346524311000	     -0.28400978855270204000	     -2.28420402990674720000	     -3.91108720333103890000	      2.39396715447885680000	     27.38137282737705600000	      4.64790215238001640000	      3.98462301444475390000	    -15.13207306905470200000	    -10.68513511354608900000	      0.00000000000013398056	     -0.00000000000028654980	    -18.13273391473376300000	     -5.76834454536744530000	    -11.51476234759744700000	    -17.57143261866037800000	      2.35292533173369510000	     -0.00000000000009906073	      0.00000000000028515127	      1.40702052008568070000	      4.99370035915343550000	    -10.97372622282711100000
      0.68567000000000000000	      0.54795996591991103000	      0.77263035306690087000	     -0.28381533157163347000	     -2.27587619874653900000	     -3.93605306673724530000	      2.36880076141909560000	     27.34117462001460900000	      4.71874088668859140000	      4.12848416338189670000	    -15.25771891808286500000	    -10.57360532707119600000	      0.00000000000013437984	     -0.00000000000028762718	    -18.06664987646237800000	     -5.82549558889318140000	    -11.48092594908896300000	    -17.81122914630679700000	      2.05725804473528080000	     -0.00000000000009921773	      0.00000000000028596633	      1.41194312655653940000	      5.02396216932326570000	    -10.98478105322696100000
      0.68667000000000000000	      0.54919364971382911000	      0.77272832266855862000	     -0.28362087459056490000	     -2.26754836758633080000	     -3.96101893014345220000	      2.34363436835933440000	     27.30097641265216200000	      4.78957962099716730000	      4.27234531231903870000	    -15.38336476711102700000	    -10.46207554059630400000	      0.00000000000013477911	     -0.00000000000028870455	    -18.00056583819099000000	     -5.88264663241891840000	    -11.44708955058047700000	    -18.05102567395321600000	      1.76159075773686660000	     -0.00000000000009937474	      0.00000000000028678138	      1.41686573302739790000	      5.05422397949309590000	    -10.99583588362681000000
      0.68767000000000000000	      0.55042314749998877000	      0.77282889354201056000	     -0.28342937004971941000	     -2.25952137678245580000	     -3.98544868362943380000	      2.32028423367734460000	     27.25881091459334400000	      4.85910139614436610000	      4.41184617072824550000	    -15.50505228094261200000	    -10.34629780681137800000	      0.00000000000013515689	     -0.00000000000028984570	    -17.92934575321329000000	     -5.93978713140209620000	    -11.41150791601354400000	    -18.29506624816378800000	      1.45351778854898960000	     -0.00000000000009954277	      0.00000000000028762347	      1.42172357977442760000	      5.08374409620241520000	    -11.00908762755695100000
      0.68867000000000000000	      0.55165124995022918000	      0.77293033150606050000	     -0.28323884965561502000	     -2.25159466609735890000	     -4.00969973380867370000	      2.29753951845461120000	     27.21598965296906800000	      4.92818418490444010000	      4.54989359896147500000	    -15.62542034970867100000	    -10.22910409058977900000	      0.00000000000013552751	     -0.00000000000029100811	    -17.85641365266682000000	     -5.99692411553775530000	    -11.37534453609379700000	    -18.54052150456241000000	      1.14130959196462810000	     -0.00000000000009971449	      0.00000000000028847456	      1.42655983994684730000	      5.11301698175823200000	    -11.02307167599718900000
      0.68967000000000001000	      0.55287793116844886000	      0.77303256910174600000	     -0.28304924335727422000	     -2.24373716184071090000	     -4.03379988511445650000	      2.27535737701442860000	     27.17253757219351200000	      4.99685729740389300000	      4.68639446067053720000	    -15.74451177171580200000	    -10.11125037396963000000	      0.00000000000013588381	     -0.00000000000029213790	    -17.78189399796975000000	     -6.05407769424217610000	    -11.33871661833820700000	    -18.78726190564168200000	      0.82478880555344924000	     -0.00000000000009988427	      0.00000000000028930244	      1.43133436123819770000	      5.14206824948291000000	    -11.03770993784185500000
      0.69067000000000001000	      0.55410034869060643000	      0.77313720559233856000	     -0.28286237934622432000	     -2.23608727686941130000	     -4.05744733979986890000	      2.25486295692189340000	     27.12719303396413300000	      5.06430138112148590000	      4.81825562280710780000	    -15.85977325344615700000	     -9.99141665615384510000	      0.00000000000013619718	     -0.00000000000029316982	    -17.70261168082090800000	     -6.11128105665288590000	    -11.30069508707509100000	    -19.03785774076291300000	      0.49533024966184652000	     -0.00000000000010004829	      0.00000000000029006071	      1.43592366588633920000	      5.17045466371417280000	    -11.05431083989979700000
      0.69167000000000001000	      0.55532276621276400000	      0.77324184208293112000	     -0.28267551533517438000	     -2.22843739189811220000	     -4.08109479448528130000	      2.23436853682936000000	     27.08184849573475400000	      5.13174546483907790000	      4.95011678494367490000	    -15.97503473517651100000	     -9.87158293833805980000	      0.00000000000013651055	     -0.00000000000029420175	    -17.62332936367206300000	     -6.16848441906359480000	    -11.26267355581197500000	    -19.28845357588414400000	      0.16587169377023522000	     -0.00000000000010021230	      0.00000000000029081898	      1.44051297053448080000	      5.19884107794543480000	    -11.07091174195774200000
